<svg xmlns="http://www.w3.org/2000/svg" xmlns:xlink="http://www.w3.org/1999/xlink" contentStyleType="text/css" data-diagram-type="DESCRIPTION" height="2686px" preserveAspectRatio="none" style="width:862px;height:2686px;background:#FFFFFF;" version="1.1" viewBox="0 0 862 2686" width="862px" zoomAndPan="magnify"><?plantuml 1.2026.4?><defs/><g><!--cluster HackHub--><g class="cluster" data-qualified-name="HackHub" data-source-line="26" id="ent0015"><rect fill="none" height="2491" rx="2.5" ry="2.5" style="stroke:#181818;stroke-width:1;" width="275.96" x="387.03" y="97.65"/><text fill="#000000" font-family="sans-serif" font-size="14" font-weight="700" lengthAdjust="spacing" textLength="70.4785" x="489.7707" y="112.6451">HackHub</text></g><!--entity UC_VisSottAssegnato--><g class="entity" data-qualified-name="HackHub.UC_VisSottAssegnato" data-source-line="29" id="ent0016"><ellipse cx="525.0132" cy="233.6466" fill="#F1F1F1" rx="117.4832" ry="25.8966" style="stroke:#181818;stroke-width:0.5;"/><text fill="#000000" font-family="sans-serif" font-size="14" lengthAdjust="spacing" textLength="168.0479" x="440.9892" y="230.8918">Visualizza Sottomissioni</text><text fill="#000000" font-family="sans-serif" font-size="14" lengthAdjust="spacing" textLength="152.9131" x="448.5566" y="247.1887">Hackathon Assegnato</text></g><!--entity UC_EliminaHack--><g class="entity" data-qualified-name="HackHub.UC_EliminaHack" data-source-line="32" id="ent0017"><ellipse cx="525.0142" cy="608.6468" fill="#F1F1F1" rx="80.2842" ry="18.4568" style="stroke:#181818;stroke-width:0.5;"/><text fill="#000000" font-family="sans-serif" font-size="14" lengthAdjust="spacing" textLength="131.3457" x="459.3414" y="613.2953">Elimina Hackathon</text></g><!--entity UC_GestSegnal--><g class="entity" data-qualified-name="HackHub.UC_GestSegnal" data-source-line="33" id="ent0018"><ellipse cx="525.0133" cy="535.6547" fill="#F1F1F1" rx="87.6233" ry="19.9247" style="stroke:#181818;stroke-width:0.5;"/><text fill="#000000" font-family="sans-serif" font-size="14" lengthAdjust="spacing" textLength="148.3398" x="450.8434" y="540.3031">Gestisci Segnalazioni</text></g><!--entity UC_ModInfoHack--><g class="entity" data-qualified-name="HackHub.UC_ModInfoHack" data-source-line="34" id="ent0019"><ellipse cx="525.013" cy="1171.6486" fill="#F1F1F1" rx="96.793" ry="21.7586" style="stroke:#181818;stroke-width:0.5;"/><text fill="#000000" font-family="sans-serif" font-size="14" lengthAdjust="spacing" textLength="168.9639" x="440.531" y="1176.297">Modifica info Hackathon</text></g><!--entity UC_RimuoviStaff--><g class="entity" data-qualified-name="HackHub.UC_RimuoviStaff" data-source-line="35" id="ent0020"><ellipse cx="525.0101" cy="1099.65" fill="#F1F1F1" rx="65.2501" ry="15.45" style="stroke:#181818;stroke-width:0.5;"/><text fill="#000000" font-family="sans-serif" font-size="14" lengthAdjust="spacing" textLength="94.1309" x="477.9447" y="1104.2985">Rimuovi Staff</text></g><!--entity UC_ProclamaVinc--><g class="entity" data-qualified-name="HackHub.UC_ProclamaVinc" data-source-line="36" id="ent0021"><ellipse cx="525.01" cy="1030.648" fill="#F1F1F1" rx="80.54" ry="18.508" style="stroke:#181818;stroke-width:0.5;"/><text fill="#000000" font-family="sans-serif" font-size="14" lengthAdjust="spacing" textLength="131.9473" x="459.0363" y="1035.2964">Proclama Vincitore</text></g><!--entity UC_AvviaHack--><g class="entity" data-qualified-name="HackHub.UC_AvviaHack" data-source-line="37" id="ent0022"><ellipse cx="525.0074" cy="959.6495" fill="#F1F1F1" rx="74.8474" ry="17.3695" style="stroke:#181818;stroke-width:0.5;"/><text fill="#000000" font-family="sans-serif" font-size="14" lengthAdjust="spacing" textLength="118.3574" x="465.8287" y="964.2979">Avvia Hackathon</text></g><!--entity UC_InvitaStaff--><g class="entity" data-qualified-name="HackHub.UC_InvitaStaff" data-source-line="38" id="ent0023"><ellipse cx="525.0129" cy="892.6536" fill="#F1F1F1" rx="55.9729" ry="14.5236" style="stroke:#181818;stroke-width:0.5;"/><text fill="#000000" font-family="sans-serif" font-size="14" lengthAdjust="spacing" textLength="74.915" x="487.5554" y="897.3021">Invita staff</text></g><!--entity UC_PagaMontepremi--><g class="entity" data-qualified-name="HackHub.UC_PagaMontepremi" data-source-line="39" id="ent0024"><ellipse cx="525.0132" cy="756.6526" fill="#F1F1F1" rx="76.9132" ry="17.7826" style="stroke:#181818;stroke-width:0.5;"/><text fill="#000000" font-family="sans-serif" font-size="14" lengthAdjust="spacing" textLength="123.3408" x="463.3428" y="761.3011">Paga Montepremi</text></g><!--entity UC_CreaHack--><g class="entity" data-qualified-name="HackHub.UC_CreaHack" data-source-line="40" id="ent0025"><ellipse cx="525.0107" cy="826.6481" fill="#98FB98" rx="72.4407" ry="16.8881" style="stroke:#181818;stroke-width:0.5;"/><text fill="#000000" font-family="sans-serif" font-size="14" lengthAdjust="spacing" textLength="112.4648" x="468.7783" y="831.2966">Crea Hackathon</text></g><!--entity UC_IniziaFaseVal--><g class="entity" data-qualified-name="HackHub.UC_IniziaFaseVal" data-source-line="41" id="ent0026"><ellipse cx="525.0068" cy="682.6534" fill="#F1F1F1" rx="92.9668" ry="20.9934" style="stroke:#181818;stroke-width:0.5;"/><text fill="#000000" font-family="sans-serif" font-size="14" lengthAdjust="spacing" textLength="160.4258" x="444.794" y="687.3018">Inizia Fase Valutazione</text></g><!--entity UC_ValutaSott--><g class="entity" data-qualified-name="HackHub.UC_ValutaSott" data-source-line="44" id="ent0027"><ellipse cx="525.0092" cy="152.6478" fill="#98FB98" rx="87.6892" ry="19.9378" style="stroke:#181818;stroke-width:0.5;"/><text fill="#000000" font-family="sans-serif" font-size="14" lengthAdjust="spacing" textLength="148.4902" x="450.7641" y="157.2963">Valuta Sottomissione</text></g><!--entity UC_SegnalaTeam--><g class="entity" data-qualified-name="HackHub.UC_SegnalaTeam" data-source-line="47" id="ent0028"><ellipse cx="525.0116" cy="464.6503" fill="#F1F1F1" rx="67.5516" ry="15.9103" style="stroke:#181818;stroke-width:0.5;"/><text fill="#000000" font-family="sans-serif" font-size="14" lengthAdjust="spacing" textLength="100.1396" x="474.9418" y="469.2988">Segnala Team</text></g><!--entity UC_VisRichSupp--><g class="entity" data-qualified-name="HackHub.UC_VisRichSupp" data-source-line="48" id="ent0029"><ellipse cx="525.0083" cy="386.6457" fill="#F1F1F1" rx="121.8783" ry="26.7757" style="stroke:#181818;stroke-width:0.5;"/><text fill="#000000" font-family="sans-serif" font-size="14" lengthAdjust="spacing" textLength="223.3574" x="413.3296" y="391.2941">Visualizza Richiesta di Supporto</text></g><!--entity UC_ProponeCall--><g class="entity" data-qualified-name="HackHub.UC_ProponeCall" data-source-line="49" id="ent0030"><ellipse cx="525.0111" cy="309.6542" fill="#F1F1F1" rx="63.0711" ry="15.0142" style="stroke:#181818;stroke-width:0.5;"/><text fill="#000000" font-family="sans-serif" font-size="14" lengthAdjust="spacing" textLength="88.2861" x="480.868" y="314.3027">Propone Call</text></g><!--entity UC_RifiutaCall--><g class="entity" data-qualified-name="HackHub.UC_RifiutaCall" data-source-line="52" id="ent0031"><ellipse cx="525.0145" cy="1992.6509" fill="#F1F1F1" rx="84.8545" ry="19.3709" style="stroke:#181818;stroke-width:0.5;"/><text fill="#000000" font-family="sans-serif" font-size="14" lengthAdjust="spacing" textLength="141.9893" x="454.0199" y="1997.2993">Rifiuta Proposta Call</text></g><!--entity UC_AccettaCall--><g class="entity" data-qualified-name="HackHub.UC_AccettaCall" data-source-line="53" id="ent0032"><ellipse cx="525.0141" cy="2066.6488" fill="#F1F1F1" rx="88.2441" ry="20.0488" style="stroke:#181818;stroke-width:0.5;"/><text fill="#000000" font-family="sans-serif" font-size="14" lengthAdjust="spacing" textLength="149.7549" x="450.1367" y="2071.2973">Accetta Proposta Call</text></g><!--entity UC_InvitaMembro--><g class="entity" data-qualified-name="HackHub.UC_InvitaMembro" data-source-line="54" id="ent0033"><ellipse cx="525.0067" cy="2137.6453" fill="#F1F1F1" rx="67.9767" ry="15.9953" style="stroke:#181818;stroke-width:0.5;"/><text fill="#000000" font-family="sans-serif" font-size="14" lengthAdjust="spacing" textLength="101.2334" x="474.39" y="2142.2938">Invita Membro</text></g><!--entity UC_RendeAmmin--><g class="entity" data-qualified-name="HackHub.UC_RendeAmmin" data-source-line="55" id="ent0034"><ellipse cx="525.0076" cy="2209.6475" fill="#F1F1F1" rx="91.5376" ry="20.7075" style="stroke:#181818;stroke-width:0.5;"/><text fill="#000000" font-family="sans-serif" font-size="14" lengthAdjust="spacing" textLength="157.2129" x="446.4011" y="2214.2959">Rende amministratore</text></g><!--entity UC_EliminaTeam--><g class="entity" data-qualified-name="HackHub.UC_EliminaTeam" data-source-line="56" id="ent0035"><ellipse cx="525.0052" cy="2280.649" fill="#F1F1F1" rx="65.7452" ry="15.549" style="stroke:#181818;stroke-width:0.5;"/><text fill="#000000" font-family="sans-serif" font-size="14" lengthAdjust="spacing" textLength="95.4365" x="477.2869" y="2285.2975">Elimina Team</text></g><!--entity UC_VisRisultati--><g class="entity" data-qualified-name="HackHub.UC_VisRisultati" data-source-line="59" id="ent0036"><ellipse cx="525.0094" cy="1469.6539" fill="#F1F1F1" rx="80.0694" ry="18.4139" style="stroke:#181818;stroke-width:0.5;"/><text fill="#000000" font-family="sans-serif" font-size="14" lengthAdjust="spacing" textLength="130.8398" x="459.5895" y="1474.3023">Visualizza Risultati</text></g><!--entity UC_InviaSott--><g class="entity" data-qualified-name="HackHub.UC_InviaSott" data-source-line="60" id="ent0037"><ellipse cx="525.0118" cy="1919.6524" fill="#98FB98" rx="82.8118" ry="18.9624" style="stroke:#181818;stroke-width:0.5;"/><text fill="#000000" font-family="sans-serif" font-size="14" lengthAdjust="spacing" textLength="137.2588" x="456.3824" y="1924.3008">Invia Sottomissione</text></g><!--entity UC_VisSottProprie--><g class="entity" data-qualified-name="HackHub.UC_VisSottProprie" data-source-line="61" id="ent0038"><ellipse cx="525.0121" cy="1838.6464" fill="#F1F1F1" rx="121.4321" ry="26.6864" style="stroke:#181818;stroke-width:0.5;"/><text fill="#000000" font-family="sans-serif" font-size="14" lengthAdjust="spacing" textLength="222.4072" x="413.8085" y="1843.2949">Visualizza Sottomissioni Proprie</text></g><!--entity UC_VisTraccia--><g class="entity" data-qualified-name="HackHub.UC_VisTraccia" data-source-line="62" id="ent0039"><ellipse cx="525.013" cy="1753.6466" fill="#F1F1F1" rx="105.783" ry="23.5566" style="stroke:#181818;stroke-width:0.5;"/><text fill="#000000" font-family="sans-serif" font-size="14" lengthAdjust="spacing" textLength="188.7266" x="430.6498" y="1758.295">Visualizza Traccia Progetto</text></g><!--entity UC_IscriveTeam--><g class="entity" data-qualified-name="HackHub.UC_IscriveTeam" data-source-line="63" id="ent0040"><ellipse cx="525.0071" cy="1679.6534" fill="#98FB98" rx="63.5171" ry="15.1034" style="stroke:#181818;stroke-width:0.5;"/><text fill="#000000" font-family="sans-serif" font-size="14" lengthAdjust="spacing" textLength="89.4961" x="480.259" y="1684.3018">Iscrive Team</text></g><!--entity UC_RichiedeSupp--><g class="entity" data-qualified-name="HackHub.UC_RichiedeSupp" data-source-line="64" id="ent0041"><ellipse cx="525.0099" cy="1611.65" fill="#F1F1F1" rx="79.0999" ry="18.22" style="stroke:#181818;stroke-width:0.5;"/><text fill="#000000" font-family="sans-serif" font-size="14" lengthAdjust="spacing" textLength="128.5498" x="460.735" y="1616.2984">Richiede Supporto</text></g><!--entity UC_AbbandonaTeam--><g class="entity" data-qualified-name="HackHub.UC_AbbandonaTeam" data-source-line="65" id="ent0042"><ellipse cx="525.006" cy="1540.6492" fill="#F1F1F1" rx="76.996" ry="17.7992" style="stroke:#181818;stroke-width:0.5;"/><text fill="#000000" font-family="sans-serif" font-size="14" lengthAdjust="spacing" textLength="123.5391" x="463.2364" y="1545.2976">Abbandona Team</text></g><!--entity UC_CreaTeam--><g class="entity" data-qualified-name="HackHub.UC_CreaTeam" data-source-line="68" id="ent0043"><ellipse cx="525.013" cy="2345.6536" fill="#98FB98" rx="57.133" ry="14.5236" style="stroke:#181818;stroke-width:0.5;"/><text fill="#000000" font-family="sans-serif" font-size="14" lengthAdjust="spacing" textLength="76.5557" x="486.7352" y="2350.3021">Crea Team</text></g><!--entity UC_AccettaInvito--><g class="entity" data-qualified-name="HackHub.UC_AccettaInvito" data-source-line="69" id="ent0044"><ellipse cx="525.0145" cy="2556.6549" fill="#F1F1F1" rx="66.2745" ry="15.6549" style="stroke:#181818;stroke-width:0.5;"/><text fill="#000000" font-family="sans-serif" font-size="14" lengthAdjust="spacing" textLength="96.8242" x="476.6024" y="2561.3033">Accetta Invito</text></g><!--entity UC_VisListaHack--><g class="entity" data-qualified-name="HackHub.UC_VisListaHack" data-source-line="70" id="ent0045"><ellipse cx="525.0088" cy="2482.6458" fill="#F1F1F1" rx="102.9788" ry="22.9958" style="stroke:#181818;stroke-width:0.5;"/><text fill="#000000" font-family="sans-serif" font-size="14" lengthAdjust="spacing" textLength="182.6016" x="433.708" y="2487.2942">Visualizza lista Hackathon</text></g><!--entity UC_Logout--><g class="entity" data-qualified-name="HackHub.UC_Logout" data-source-line="71" id="ent0046"><ellipse cx="525.0082" cy="2409.6536" fill="#F1F1F1" rx="37.0682" ry="14.5236" style="stroke:#181818;stroke-width:0.5;"/><text fill="#000000" font-family="sans-serif" font-size="14" lengthAdjust="spacing" textLength="48.1797" x="500.9183" y="2414.3021">Logout</text></g><!--entity UC_AccediInfoPub--><g class="entity" data-qualified-name="HackHub.UC_AccediInfoPub" data-source-line="74" id="ent0047"><ellipse cx="525.0143" cy="1255.6469" fill="#F1F1F1" rx="121.9843" ry="26.7969" style="stroke:#181818;stroke-width:0.5;"/><text fill="#000000" font-family="sans-serif" font-size="14" lengthAdjust="spacing" textLength="223.583" x="413.2228" y="1260.2953">Accedi a informazioni pubbliche</text></g><!--entity UC_Autenticazione--><g class="entity" data-qualified-name="HackHub.UC_Autenticazione" data-source-line="75" id="ent0048"><ellipse cx="525.0062" cy="1399.6512" fill="#F1F1F1" rx="69.2062" ry="16.2412" style="stroke:#181818;stroke-width:0.5;"/><text fill="#000000" font-family="sans-serif" font-size="14" lengthAdjust="spacing" textLength="104.3711" x="472.8206" y="1404.2997">Autenticazione</text></g><!--entity UC_Registrazione--><g class="entity" data-qualified-name="HackHub.UC_Registrazione" data-source-line="76" id="ent0049"><ellipse cx="525.009" cy="1332.6458" fill="#F1F1F1" rx="65.779" ry="15.5558" style="stroke:#181818;stroke-width:0.5;"/><text fill="#000000" font-family="sans-serif" font-size="14" lengthAdjust="spacing" textLength="95.5254" x="477.2463" y="1337.2942">Registrazione</text></g><!--entity MembroStaff--><g class="entity" data-qualified-name="MembroStaff" data-source-line="7" id="ent0001"><ellipse cx="525.014" cy="14" fill="#F1F1F1" rx="8" ry="8" style="stroke:#181818;stroke-width:0.5;"/><path d="M525.014,22 L525.014,49 M512.014,30 L538.014,30 M525.014,49 L512.014,64 M525.014,49 L538.014,64" fill="none" style="stroke:#181818;stroke-width:0.5;"/><text fill="#000000" font-family="sans-serif" font-size="14" lengthAdjust="spacing" textLength="93.208" x="478.41" y="78.4951">Membro staff</text></g><!--entity Organizzatore--><g class="entity" data-qualified-name="Organizzatore" data-source-line="8" id="ent0002"><ellipse cx="280.9521" cy="797" fill="#F1F1F1" rx="8" ry="8" style="stroke:#181818;stroke-width:0.5;"/><path d="M280.9521,805 L280.9521,832 M267.9521,813 L293.9521,813 M280.9521,832 L267.9521,847 M280.9521,832 L293.9521,847" fill="none" style="stroke:#181818;stroke-width:0.5;"/><text fill="#000000" font-family="sans-serif" font-size="14" lengthAdjust="spacing" textLength="98.7041" x="231.6" y="861.4951">Organizzatore</text></g><!--entity Giudice--><g class="entity" data-qualified-name="Giudice" data-source-line="9" id="ent0003"><ellipse cx="280.9491" cy="69" fill="#F1F1F1" rx="8" ry="8" style="stroke:#181818;stroke-width:0.5;"/><path d="M280.9491,77 L280.9491,104 M267.9491,85 L293.9491,85 M280.9491,104 L267.9491,119 M280.9491,104 L293.9491,119" fill="none" style="stroke:#181818;stroke-width:0.5;"/><text fill="#000000" font-family="sans-serif" font-size="14" lengthAdjust="spacing" textLength="52.6982" x="254.6" y="133.4951">Giudice</text></g><!--entity Mentore--><g class="entity" data-qualified-name="Mentore" data-source-line="10" id="ent0004"><ellipse cx="280.9546" cy="319" fill="#F1F1F1" rx="8" ry="8" style="stroke:#181818;stroke-width:0.5;"/><path d="M280.9546,327 L280.9546,354 M267.9546,335 L293.9546,335 M280.9546,354 L267.9546,369 M280.9546,354 L293.9546,369" fill="none" style="stroke:#181818;stroke-width:0.5;"/><text fill="#000000" font-family="sans-serif" font-size="14" lengthAdjust="spacing" textLength="57.9893" x="251.96" y="383.4951">Mentore</text></g><!--entity AmminTeam--><g class="entity" data-qualified-name="AmminTeam" data-source-line="11" id="ent0005"><ellipse cx="82.4395" cy="2073" fill="#F1F1F1" rx="8" ry="8" style="stroke:#181818;stroke-width:0.5;"/><path d="M82.4395,2081 L82.4395,2108 M69.4395,2089 L95.4395,2089 M82.4395,2108 L69.4395,2123 M82.4395,2108 L95.4395,2123" fill="none" style="stroke:#181818;stroke-width:0.5;"/><text fill="#000000" font-family="sans-serif" font-size="14" lengthAdjust="spacing" textLength="152.8789" x="6" y="2137.4951">Amministratore Team</text></g><!--entity MembroTeam--><g class="entity" data-qualified-name="MembroTeam" data-source-line="12" id="ent0006"><ellipse cx="280.9537" cy="1687" fill="#F1F1F1" rx="8" ry="8" style="stroke:#181818;stroke-width:0.5;"/><path d="M280.9537,1695 L280.9537,1722 M267.9537,1703 L293.9537,1703 M280.9537,1722 L267.9537,1737 M280.9537,1722 L293.9537,1737" fill="none" style="stroke:#181818;stroke-width:0.5;"/><text fill="#000000" font-family="sans-serif" font-size="14" lengthAdjust="spacing" textLength="124.1475" x="218.88" y="1751.4951">Membro del team</text></g><!--entity Utente--><g class="entity" data-qualified-name="Utente" data-source-line="13" id="ent0007"><ellipse cx="280.9526" cy="2416" fill="#F1F1F1" rx="8" ry="8" style="stroke:#181818;stroke-width:0.5;"/><path d="M280.9526,2424 L280.9526,2451 M267.9526,2432 L293.9526,2432 M280.9526,2451 L267.9526,2466 M280.9526,2451 L293.9526,2466" fill="none" style="stroke:#181818;stroke-width:0.5;"/><text fill="#000000" font-family="sans-serif" font-size="14" lengthAdjust="spacing" textLength="47.3252" x="257.29" y="2480.4951">Utente</text></g><!--entity Visitatore--><g class="entity" data-qualified-name="Visitatore" data-source-line="14" id="ent0008"><ellipse cx="280.9513" cy="1303" fill="#F1F1F1" rx="8" ry="8" style="stroke:#181818;stroke-width:0.5;"/><path d="M280.9513,1311 L280.9513,1338 M267.9513,1319 L293.9513,1319 M280.9513,1338 L267.9513,1353 M280.9513,1338 L293.9513,1353" fill="none" style="stroke:#181818;stroke-width:0.5;"/><text fill="#000000" font-family="sans-serif" font-size="14" lengthAdjust="spacing" textLength="67.1426" x="247.38" y="1367.4951">Visitatore</text></g><!--entity SistemaPagamento--><g class="entity" data-qualified-name="SistemaPagamento" data-source-line="17" id="ent0009"><ellipse cx="777.2429" cy="727" fill="#F1F1F1" rx="8" ry="8" style="stroke:#181818;stroke-width:0.5;"/><path d="M777.2429,735 L777.2429,762 M764.2429,743 L790.2429,743 M777.2429,762 L764.2429,777 M777.2429,762 L790.2429,777" fill="none" style="stroke:#181818;stroke-width:0.5;"/><text fill="#000000" font-family="sans-serif" font-size="14" lengthAdjust="spacing" textLength="140.5059" x="706.99" y="791.4951">Sistema Pagamento</text></g><!--entity Calendar--><g class="entity" data-qualified-name="Calendar" data-source-line="18" id="ent0010"><ellipse cx="777.2461" cy="1437" fill="#F1F1F1" rx="8" ry="8" style="stroke:#181818;stroke-width:0.5;"/><path d="M777.2461,1445 L777.2461,1472 M764.2461,1453 L790.2461,1453 M777.2461,1472 L764.2461,1487 M777.2461,1472 L790.2461,1487" fill="none" style="stroke:#181818;stroke-width:0.5;"/><text fill="#000000" font-family="sans-serif" font-size="14" lengthAdjust="spacing" textLength="62.9521" x="745.77" y="1501.4951">Calendar</text></g><!--link Organizzatore to MembroStaff--><g class="link" data-entity-1="ent0002" data-entity-2="ent0001" data-link-type="extension" data-source-line="21" id="lnk11"><path d="M287.76,788.28 C298.92,714.19 323.93,546.24 343.03,404.65 C351.65,340.73 341.85,169.35 379.03,116.65 C402.34,83.6 427.8788,70.0052 460.9388,59.7452" fill="none" id="Organizzatore-to-MembroStaff" style="stroke:#181818;stroke-width:1;"/><polygon fill="none" points="478.13,54.41,459.1605,54.0148,462.7172,65.4756,478.13,54.41" style="stroke:#181818;stroke-width:1;stroke-linejoin:miter;stroke-miterlimit:10;"/></g><!--link Giudice to MembroStaff--><g class="link" data-entity-1="ent0003" data-entity-2="ent0001" data-link-type="extension" data-source-line="22" id="lnk12"><path d="M307.4,92.87 C347.82,83.68 409.7378,69.6202 460.3678,58.1102" fill="none" id="Giudice-to-MembroStaff" style="stroke:#181818;stroke-width:1;"/><polygon fill="none" points="477.92,54.12,459.0378,52.2595,461.6979,63.9609,477.92,54.12" style="stroke:#181818;stroke-width:1;stroke-linejoin:miter;stroke-miterlimit:10;"/></g><!--link Mentore to MembroStaff--><g class="link" data-entity-1="ent0004" data-entity-2="ent0001" data-link-type="extension" data-source-line="23" id="lnk13"><path d="M289.41,310.03 C300.84,259.93 327.08,172.38 379.03,116.65 C405.83,87.89 429.5615,74.9453 461.0015,63.5253" fill="none" id="Mentore-to-MembroStaff" style="stroke:#181818;stroke-width:1;"/><polygon fill="none" points="477.92,57.38,458.9531,57.8858,463.05,69.1648,477.92,57.38" style="stroke:#181818;stroke-width:1;stroke-linejoin:miter;stroke-miterlimit:10;"/></g><!--link AmminTeam to MembroTeam--><g class="link" data-entity-1="ent0005" data-entity-2="ent0006" data-link-type="extension" data-source-line="24" id="lnk14"><path d="M103,2064.23 C140.62,1990.33 214.4825,1845.2403 252.1625,1771.2403" fill="none" id="AmminTeam-to-MembroTeam" style="stroke:#181818;stroke-width:1;"/><polygon fill="none" points="260.33,1755.2,246.8157,1768.5178,257.5092,1773.9628,260.33,1755.2" style="stroke:#181818;stroke-width:1;stroke-linejoin:miter;stroke-miterlimit:10;"/></g><!--link MembroStaff to UC_VisSottAssegnato--><g class="link" data-entity-1="ent0001" data-entity-2="ent0016" data-link-type="association" data-source-line="80" id="lnk50"><path d="M478.26,56.75 C421.58,75.43 336.46,114.01 361.03,172.15 C371.68,197.36 395.11,212.44 421.01,221.41" fill="none" id="MembroStaff-UC_VisSottAssegnato" style="stroke:#181818;stroke-width:1;"/></g><!--link Organizzatore to UC_EliminaHack--><g class="link" data-entity-1="ent0002" data-entity-2="ent0017" data-link-type="association" data-source-line="82" id="lnk51"><path d="M292.24,788.16 C305.41,746.48 332.28,681.09 379.03,644.65 C398.97,629.1 424.75,620.18 449.03,615.08" fill="none" id="Organizzatore-UC_EliminaHack" style="stroke:#181818;stroke-width:1;"/></g><!--link Organizzatore to UC_GestSegnal--><g class="link" data-entity-1="ent0002" data-entity-2="ent0018" data-link-type="association" data-source-line="83" id="lnk52"><path d="M285.7,788.19 C293.24,732.36 315.41,629.33 379.03,572.65 C396.48,557.1 419.58,547.91 442.2,542.53" fill="none" id="Organizzatore-UC_GestSegnal" style="stroke:#181818;stroke-width:1;"/></g><!--link Organizzatore to UC_ModInfoHack--><g class="link" data-entity-1="ent0002" data-entity-2="ent0019" data-link-type="association" data-source-line="84" id="lnk53"><path d="M282.86,865.14 C286.54,929.84 303.51,1060.42 379.03,1132.65 C394.66,1147.6 415.4,1156.96 436.28,1162.78" fill="none" id="Organizzatore-UC_ModInfoHack" style="stroke:#181818;stroke-width:1;"/></g><!--link Organizzatore to UC_RimuoviStaff--><g class="link" data-entity-1="ent0002" data-entity-2="ent0020" data-link-type="association" data-source-line="85" id="lnk54"><path d="M286.46,865.02 C294.84,918.48 317.93,1014.65 379.03,1066.65 C401.34,1085.64 432.37,1094.28 459.99,1098.01" fill="none" id="Organizzatore-UC_RimuoviStaff" style="stroke:#181818;stroke-width:1;"/></g><!--link Organizzatore to UC_ProclamaVinc--><g class="link" data-entity-1="ent0002" data-entity-2="ent0021" data-link-type="association" data-source-line="86" id="lnk55"><path d="M294.1,865.05 C308.3,903.64 335.56,961.94 379.03,994.65 C399.33,1009.93 425.34,1018.79 449.71,1023.9" fill="none" id="Organizzatore-UC_ProclamaVinc" style="stroke:#181818;stroke-width:1;"/></g><!--link Organizzatore to UC_AvviaHack--><g class="link" data-entity-1="ent0002" data-entity-2="ent0022" data-link-type="association" data-source-line="87" id="lnk56"><path d="M310.88,864.84 C328.44,885.47 352.54,909.71 379.03,924.65 C403.05,938.2 432.17,946.53 458,951.64" fill="none" id="Organizzatore-UC_AvviaHack" style="stroke:#181818;stroke-width:1;"/></g><!--link Organizzatore to UC_InvitaStaff--><g class="link" data-entity-1="ent0002" data-entity-2="ent0023" data-link-type="association" data-source-line="88" id="lnk57"><path d="M330.47,844.92 C345.87,850.38 363.05,856.11 379.03,860.65 C412.13,870.06 450.13,878.36 478.93,884.15" fill="none" id="Organizzatore-UC_InvitaStaff" style="stroke:#181818;stroke-width:1;"/></g><!--link Organizzatore to UC_PagaMontepremi--><g class="link" data-entity-1="ent0002" data-entity-2="ent0024" data-link-type="association" data-source-line="89" id="lnk58"><path d="M330.55,808.63 C345.95,803.19 363.11,797.4 379.03,792.65 C408.35,783.89 441.45,775.56 468.6,769.12" fill="none" id="Organizzatore-UC_PagaMontepremi" style="stroke:#181818;stroke-width:1;"/></g><!--link Organizzatore to UC_CreaHack--><g class="link" data-entity-1="ent0002" data-entity-2="ent0025" data-link-type="association" data-source-line="90" id="lnk59"><path d="M330.65,826.65 C365.57,826.65 413.2,826.65 452.44,826.65" fill="none" id="Organizzatore-UC_CreaHack" style="stroke:#181818;stroke-width:1;"/></g><!--link Organizzatore to UC_IniziaFaseVal--><g class="link" data-entity-1="ent0002" data-entity-2="ent0026" data-link-type="association" data-source-line="91" id="lnk60"><path d="M308.88,788.03 C326.43,765.57 351.19,738.47 379.03,721.65 C399.77,709.11 424.58,700.53 447.76,694.7" fill="none" id="Organizzatore-UC_IniziaFaseVal" style="stroke:#181818;stroke-width:1;"/></g><!--link Giudice to UC_ValutaSott--><g class="link" data-entity-1="ent0003" data-entity-2="ent0027" data-link-type="association" data-source-line="93" id="lnk61"><path d="M307.4,104.33 C343.57,112.4 411.02,127.44 461.08,138.61" fill="none" id="Giudice-UC_ValutaSott" style="stroke:#181818;stroke-width:1;"/></g><!--link Mentore to UC_SegnalaTeam--><g class="link" data-entity-1="ent0004" data-entity-2="ent0028" data-link-type="association" data-source-line="95" id="lnk62"><path d="M310.32,378.92 C328.39,396.5 353.21,417.67 379.03,430.65 C405.59,444.01 437.54,452.22 464.69,457.22" fill="none" id="Mentore-UC_SegnalaTeam" style="stroke:#181818;stroke-width:1;"/></g><!--link Mentore to UC_VisRichSupp--><g class="link" data-entity-1="ent0004" data-entity-2="ent0029" data-link-type="association" data-source-line="96" id="lnk63"><path d="M310.19,353.08 C338.38,357.51 383.34,364.57 424.78,371.07" fill="none" id="Mentore-UC_VisRichSupp" style="stroke:#181818;stroke-width:1;"/></g><!--link Mentore to UC_ProponeCall--><g class="link" data-entity-1="ent0004" data-entity-2="ent0030" data-link-type="association" data-source-line="97" id="lnk64"><path d="M310.19,344.1 C349.73,337.73 422.27,326.04 471.79,318.06" fill="none" id="Mentore-UC_ProponeCall" style="stroke:#181818;stroke-width:1;"/></g><!--link AmminTeam to UC_RifiutaCall--><g class="link" data-entity-1="ent0005" data-entity-2="ent0031" data-link-type="association" data-source-line="99" id="lnk65"><path d="M159.06,2078.01 C178.46,2072.01 199.37,2065.84 218.88,2060.65 C301.36,2038.71 397.64,2018.07 459.65,2005.4" fill="none" id="AmminTeam-UC_RifiutaCall" style="stroke:#181818;stroke-width:1;"/></g><!--link AmminTeam to UC_AccettaCall--><g class="link" data-entity-1="ent0005" data-entity-2="ent0032" data-link-type="association" data-source-line="100" id="lnk66"><path d="M159.18,2096.46 C237.78,2090.04 360.35,2080.02 441.41,2073.4" fill="none" id="AmminTeam-UC_AccettaCall" style="stroke:#181818;stroke-width:1;"/></g><!--link AmminTeam to UC_InvitaMembro--><g class="link" data-entity-1="ent0005" data-entity-2="ent0033" data-link-type="association" data-source-line="101" id="lnk67"><path d="M159.18,2108.67 C244.06,2115.41 380.2,2126.23 459.98,2132.56" fill="none" id="AmminTeam-UC_InvitaMembro" style="stroke:#181818;stroke-width:1;"/></g><!--link AmminTeam to UC_RendeAmmin--><g class="link" data-entity-1="ent0005" data-entity-2="ent0034" data-link-type="association" data-source-line="102" id="lnk68"><path d="M159.18,2121.04 C244.55,2141.78 381.78,2175.11 461.36,2194.43" fill="none" id="AmminTeam-UC_RendeAmmin" style="stroke:#181818;stroke-width:1;"/></g><!--link AmminTeam to UC_EliminaTeam--><g class="link" data-entity-1="ent0005" data-entity-2="ent0035" data-link-type="association" data-source-line="103" id="lnk69"><path d="M150.41,2141.3 C209.05,2173.71 297.41,2219.15 379.03,2247.65 C408.76,2258.03 443.08,2266.01 470.86,2271.53" fill="none" id="AmminTeam-UC_EliminaTeam" style="stroke:#181818;stroke-width:1;"/></g><!--link MembroTeam to UC_VisRisultati--><g class="link" data-entity-1="ent0006" data-entity-2="ent0036" data-link-type="association" data-source-line="105" id="lnk70"><path d="M289.1,1678.11 C300,1630.39 325.45,1550.01 379.03,1505.65 C398.5,1489.52 424.18,1480.46 448.5,1475.42" fill="none" id="MembroTeam-UC_VisRisultati" style="stroke:#181818;stroke-width:1;"/></g><!--link MembroTeam to UC_InviaSott--><g class="link" data-entity-1="ent0006" data-entity-2="ent0037" data-link-type="association" data-source-line="106" id="lnk71"><path d="M294.53,1755.26 C308.94,1793.34 336.23,1850.4 379.03,1882.65 C399.05,1897.74 424.58,1906.71 448.61,1912.03" fill="none" id="MembroTeam-UC_InviaSott" style="stroke:#181818;stroke-width:1;"/></g><!--link MembroTeam to UC_VisSottProprie--><g class="link" data-entity-1="ent0006" data-entity-2="ent0038" data-link-type="association" data-source-line="107" id="lnk72"><path d="M322.48,1754.99 C339.01,1769.03 358.95,1784.05 379.03,1794.65 C397.98,1804.66 419.57,1812.75 440.18,1819.14" fill="none" id="MembroTeam-UC_VisSottProprie" style="stroke:#181818;stroke-width:1;"/></g><!--link MembroTeam to UC_VisTraccia--><g class="link" data-entity-1="ent0006" data-entity-2="ent0039" data-link-type="association" data-source-line="108" id="lnk73"><path d="M343.35,1726.03 C371.64,1730.36 405.73,1735.57 436.64,1740.29" fill="none" id="MembroTeam-UC_VisTraccia" style="stroke:#181818;stroke-width:1;"/></g><!--link MembroTeam to UC_IscriveTeam--><g class="link" data-entity-1="ent0006" data-entity-2="ent0040" data-link-type="association" data-source-line="109" id="lnk74"><path d="M343.35,1707.27 C382.56,1701.27 432.92,1693.57 470.5,1687.83" fill="none" id="MembroTeam-UC_IscriveTeam" style="stroke:#181818;stroke-width:1;"/></g><!--link MembroTeam to UC_RichiedeSupp--><g class="link" data-entity-1="ent0006" data-entity-2="ent0041" data-link-type="association" data-source-line="110" id="lnk75"><path d="M327.56,1678.2 C343.1,1666.66 361.09,1654.89 379.03,1646.65 C403.97,1635.19 433.11,1627.22 458.7,1621.81" fill="none" id="MembroTeam-UC_RichiedeSupp" style="stroke:#181818;stroke-width:1;"/></g><!--link MembroTeam to UC_AbbandonaTeam--><g class="link" data-entity-1="ent0006" data-entity-2="ent0042" data-link-type="association" data-source-line="111" id="lnk76"><path d="M298.73,1678.1 C314.74,1645.86 341.93,1601.16 379.03,1575.65 C400.68,1560.76 427.96,1552.17 452.99,1547.24" fill="none" id="MembroTeam-UC_AbbandonaTeam" style="stroke:#181818;stroke-width:1;"/></g><!--link Utente to UC_CreaTeam--><g class="link" data-entity-1="ent0007" data-entity-2="ent0043" data-link-type="association" data-source-line="113" id="lnk77"><path d="M305.09,2425.47 C323.82,2410.16 351.52,2389.74 379.03,2377.65 C408.76,2364.58 444.35,2356.62 472.82,2351.91" fill="none" id="Utente-UC_CreaTeam" style="stroke:#181818;stroke-width:1;"/></g><!--link Utente to UC_AccettaInvito--><g class="link" data-entity-1="ent0007" data-entity-2="ent0044" data-link-type="association" data-source-line="114" id="lnk78"><path d="M305.04,2468.87 C323.53,2486.17 350.95,2509.07 379.03,2522.65 C406.26,2535.82 438.88,2544.05 466.28,2549.11" fill="none" id="Utente-UC_AccettaInvito" style="stroke:#181818;stroke-width:1;"/></g><!--link Utente to UC_VisListaHack--><g class="link" data-entity-1="ent0007" data-entity-2="ent0045" data-link-type="association" data-source-line="115" id="lnk79"><path d="M304.72,2449.13 C335.27,2453.8 391.18,2462.35 438.9,2469.64" fill="none" id="Utente-UC_VisListaHack" style="stroke:#181818;stroke-width:1;"/></g><!--link Utente to UC_Logout--><g class="link" data-entity-1="ent0007" data-entity-2="ent0046" data-link-type="association" data-source-line="116" id="lnk80"><path d="M304.72,2442.26 C347.45,2435.91 439.82,2422.17 489.96,2414.71" fill="none" id="Utente-UC_Logout" style="stroke:#181818;stroke-width:1;"/></g><!--link Visitatore to UC_AccediInfoPub--><g class="link" data-entity-1="ent0008" data-entity-2="ent0047" data-link-type="association" data-source-line="118" id="lnk81"><path d="M314.66,1321.23 C333.45,1314.75 357.51,1306.57 379.03,1299.65 C402.31,1292.16 427.82,1284.31 450.85,1277.34" fill="none" id="Visitatore-UC_AccediInfoPub" style="stroke:#181818;stroke-width:1;"/></g><!--link Visitatore to UC_Autenticazione--><g class="link" data-entity-1="ent0008" data-entity-2="ent0048" data-link-type="association" data-source-line="119" id="lnk82"><path d="M314.95,1344.76 C333.61,1351.38 357.47,1359.47 379.03,1365.65 C409.72,1374.44 444.54,1382.67 472.37,1388.82" fill="none" id="Visitatore-UC_Autenticazione" style="stroke:#181818;stroke-width:1;"/></g><!--link Visitatore to UC_Registrazione--><g class="link" data-entity-1="ent0008" data-entity-2="ent0049" data-link-type="association" data-source-line="120" id="lnk83"><path d="M314.85,1332.65 C351.69,1332.65 412.32,1332.65 458.85,1332.65" fill="none" id="Visitatore-UC_Registrazione" style="stroke:#181818;stroke-width:1;"/></g><!--link UC_PagaMontepremi to SistemaPagamento--><g class="link" data-entity-1="ent0024" data-entity-2="ent0009" data-link-type="association" data-source-line="123" id="lnk84"><path d="M602.11,756.65 C635.47,756.65 674.35,756.65 706.9,756.65" fill="none" id="UC_PagaMontepremi-SistemaPagamento" style="stroke:#181818;stroke-width:1;"/></g><!--link UC_ProponeCall to Calendar--><g class="link" data-entity-1="ent0030" data-entity-2="ent0010" data-link-type="association" data-source-line="124" id="lnk85"><path d="M587.79,307.8 C617.36,310.4 650.68,319.09 670.99,342.65 C705.2,382.31 702.24,760.49 706.99,812.65 C728.36,1046.88 760.18,1327.63 771.8,1428.36" fill="none" id="UC_ProponeCall-Calendar" style="stroke:#181818;stroke-width:1;"/></g><!--link UC_AccettaCall to Calendar--><g class="link" data-entity-1="ent0032" data-entity-2="ent0010" data-link-type="association" data-source-line="125" id="lnk86"><path d="M610.81,2061.4 C633.1,2056.03 655.28,2046.43 670.99,2029.65 C742.81,1953.01 767.77,1619.48 774.31,1505.22" fill="none" id="UC_AccettaCall-Calendar" style="stroke:#181818;stroke-width:1;"/></g><g class="legend" data-source-line="127"><rect fill="#DDDDDD" height="58.8906" rx="7.5" ry="7.5" style="stroke:#000000;stroke-width:1;" width="316.2295" x="527.2664" y="2608.65"/><text fill="#000000" font-family="sans-serif" font-size="14" lengthAdjust="spacing" textLength="265.7676" x="532.2664" y="2626.6451">Verde = casi d'uso della 1a iterazione</text><text fill="#000000" font-family="sans-serif" font-size="14" lengthAdjust="spacing" textLength="306.2295" x="532.2664" y="2642.942">(Crea Hackathon, Crea Team, Iscrive Team,</text><text fill="#000000" font-family="sans-serif" font-size="14" lengthAdjust="spacing" textLength="300.1113" x="536.7166" y="2659.2389">Invia Sottomissione, Valuta Sottomissione)</text></g><?plantuml-src ZLXHRzms37xtho3SXoH04Y2l0peW2DQqG8C5kJPF0mgTJ-TejQM3R1-ms_RVHqgo9SgwhlToPtqKAOhaH_eku8iLk-caZ9PmzyiTx6G7EoLQA_fUu9E2HWmATXVJOA2U1laW1ddxvw6juVAZQBv_dBPNjzK5l4gxa_0-bKPLdO0x0MgKLZWJjrKdzoEC1gngtqQqP6Kp8b8DtvK-2BGA1zGgMhaP_-ea42nqsyaARRod3zoFex4A3bRr0h_TOYKQN8JwIVPRQs0OnNvVG_Y80VpwXfPdqTzjAxGwdGG-oJgAilLP-55DEzKiOejmM8_cTQejCQzJRVTzhxGQHkjim1Sf-fh4t3ezPUvGJ4OdnDn99R-EQ28pJ99-VPPwLOCQHNP4b8hhgsiUP6FqZYxwSi0Zorw1n2-hrHM_-er31JoBLlJahtCfh2wBi_I3w2IfvUUOL-Cf7gN6tEae7fH02l3IGFYZUVCiNd1pyy-lBDeXGi762WwHEGSl4SbXT_VLafqGIW7-hYg02vIyWJGNQG41B1-i3-a2CNclO6FGcruD0xdtXoP5Odmp6kw7GRPQX8ly-l0DDv7miXvDvNV0RFtMANH2mA8vBGnK6t22qssF66OrD0esPAtprr_7ROHxADtrP7PghngiURqtpAJVXVWdH79ZBwgVp15jiSADnWBkWvBiUxQcwGHctQlIZSeg6VVDEC7flllZKPLkPDxdyFoGd_GHgoGZbsIJnzTdnDo79uDbUB1OFYjRX4SutVbWPVcGOIVX1CExPooSHokbvkTL9_Jo0psyYcuQFGVNyRo44uneJAQvOlAKTHfOkiewEOp72KwFarI3BYLdIAx0WQkFLns4NCsLY-X5DMyA4n8x5YRHT3WOo-g6S5hESkT0NGz9fpjhEWYHJFIbmD-vNozO1NHTRZ-TorkPizc1JccQb4qZntDx0fZl2JdfkQOk9gJ7sE6GP2K8viMI5Gvq7fP898iJOn3FYHdzpRth1mpuWZyxR3-gKFWkTW7E_Iucu_e6LZdv4ppiOc2LpAWth9xHW9DKqoWNlnPZPMhkHu2P5qDZrL6Uo_x52o_cygpiXyz_36hC_PAYMImlXVljLkYTqVzJXuiOZxIVCV80E_8ggelazGEFvc9mEMpMt1Tm3vy9IAUeYX82NMBncP2Stp-RranZVJOC7ez-nwafzvqEXqJakw3jm-XocBRR3YCWqvhUAUg7pzEMxP_eIh6DdjQ9dTu14-CLthhAFhT_gVL4hFet6Vw6mM2k-dExSGjzfDdUXDdUprx9g0IK2AKP9PzDyf6ZX2UpHGbEXuWIpgQ5aW0R2qe2iV-NqBJH5zNpZbuIcLlt6VsiCSU6pFjiLSMcchT9ZgGTa2EilyLfTxx7sAToBEr7ESRwpaffx2yvnFf8dBDJ9-PMi48NfYzkJCcxXC_Sl5ORgNSDCZfTeHbRBYoPaXzVvPp68CPP39bPYR7HcbtMC2UF5SwveSmC-6eulup5zqHF3Qio8BMhjq6UWVuTAxu5yZJBqQgJBVxo_oGW-VtSFn0eUCddwcjOMjKrf1tv6cMXC6XSGsaMlghmCFv8rNy0?></g></svg>